<svg xmlns="http://www.w3.org/2000/svg" viewBox="220 110 350 160">
  <path d="M0 0 C10.00286529 8.34690996 12.78302094 18.49119132 15 31 C4.312837 31.79585256 -6.28399677 32.12825004 -17 32 C-17.21914063 31.26394531 -17.43828125 30.52789062 -17.6640625 29.76953125 C-19.73291041 23.40319846 -21.20489299 19.52251603 -27 16 C-34.06007574 13.09290999 -42.31691915 12.73888399 -49.5 15.4375 C-51.2325 16.2109375 -51.2325 16.2109375 -53 17 C-53.99 17.33 -54.98 17.66 -56 18 C-58.71426068 23.12693684 -59.68732814 28.58392605 -58.0625 34.1875 C-56.36947222 38.06797961 -54.38959926 39.61019238 -50.51953125 41.20703125 C-43.38348571 43.45294946 -36.02392 44.66702147 -28.66015625 45.8984375 C-1.26949595 50.52950373 -1.26949595 50.52950373 9 60 C9.55300781 60.48855469 10.10601562 60.97710937 10.67578125 61.48046875 C17.64742291 68.48670912 19.37241444 78.50383511 19.5 88.0625 C19.33442487 100.45550247 15.22830937 109.5199312 6.77734375 118.3125 C1.06775907 123.81396986 -4.51554935 127.39981619 -12 130 C-12.90492188 130.31839844 -13.80984375 130.63679687 -14.7421875 130.96484375 C-33.87506528 136.47125552 -56.43773091 134.2955975 -73.8671875 124.9375 C-84.75402549 118.20449296 -89.94053746 108.19399933 -92.875 95.9375 C-93.52806062 92.84109187 -94 90.16444871 -94 87 C-83.77 87 -73.54 87 -63 87 C-61.515 91.455 -61.515 91.455 -60 96 C-57.0605669 101.19299847 -53.92774012 104.81780756 -48.3203125 107.08203125 C-40.38789985 109.27511004 -30.82726095 109.36530853 -23.25 105.9375 C-19.03052072 103.39444683 -16.31998617 100.81516081 -15 96 C-14.26980329 91.10612842 -14.51454641 87.24830924 -16.3125 82.625 C-23.18201195 75.91524414 -34.20282684 75.0465481 -43.3125 73.5625 C-58.18169237 70.95643435 -70.79136623 68.20863377 -81.75 57.25 C-88.48995153 47.51451446 -89.916502 36.61763095 -89 25 C-86.5794112 12.7725686 -80.99010008 4.33563902 -71 -3 C-51.21003229 -15.92477537 -18.81545582 -14.31610769 0 0 Z " fill="#000000" transform="translate(335,124)"/>
  <path d="M0 0 C0.13271809 9.29517371 0.26322078 18.59037546 0.39115143 27.8856163 C0.45066575 32.20517209 0.51084877 36.52471605 0.57275391 40.84423828 C0.86918901 61.56555374 1.05608645 82.27605766 1 103 C-8.57 103 -18.14 103 -28 103 C-29.14814997 100.70370006 -29.30769809 98.92301914 -29.5625 96.375 C-29.68818359 95.14910156 -29.68818359 95.14910156 -29.81640625 93.8984375 C-29.87699219 93.27195312 -29.93757813 92.64546875 -30 92 C-30.45375 92.70125 -30.9075 93.4025 -31.375 94.125 C-37.35746957 100.67722858 -45.72782845 104.9050293 -54.609375 105.3359375 C-67.19241343 105.55880781 -76.714569 104.9334984 -86.24609375 95.921875 C-97.02027816 84.11586446 -96.15177824 69.06017744 -96.09765625 54.02734375 C-96.09578782 52.49321031 -96.09436593 50.95907627 -96.09336853 49.42494202 C-96.08957676 45.41535757 -96.07977555 41.40581018 -96.06866455 37.39624023 C-96.05837807 33.29346213 -96.0538555 29.19067795 -96.04882812 25.08789062 C-96.03814982 17.05857497 -96.02058063 9.02929638 -96 1 C-86.43 1 -76.86 1 -67 1 C-66.93941406 4.20976562 -66.87882812 7.41953125 -66.81640625 10.7265625 C-66.75418132 13.91749438 -66.69097673 17.10840551 -66.62768555 20.29931641 C-66.58500093 22.47703107 -66.54329674 24.65476522 -66.50268555 26.83251953 C-66.36444233 34.22255816 -66.19365591 41.61121594 -66 49 C-65.96311066 50.56663391 -65.96311066 50.56663391 -65.92547607 52.16491699 C-65.84975956 55.18094813 -65.75409143 58.19568502 -65.65234375 61.2109375 C-65.63200577 62.11188141 -65.61166779 63.01282532 -65.5907135 63.94107056 C-65.35009048 70.1596497 -64.17516124 74.48496982 -60 79.3125 C-54.69161452 82.29846683 -49.16873067 82.68125468 -43.23828125 81.40625 C-37.07272575 79.26812014 -34.18699528 76.65434647 -31 71 C-29.88121573 67.64364718 -29.84114412 65.04711646 -29.79467773 61.5090332 C-29.78477814 60.8551059 -29.77487854 60.20117859 -29.76467896 59.5274353 C-29.73312217 57.3685873 -29.70832968 55.20971729 -29.68359375 53.05078125 C-29.66301919 51.55290662 -29.64202258 50.05503772 -29.62062073 48.55717468 C-29.56545191 44.6166143 -29.51601979 40.67600197 -29.46777344 36.73535156 C-29.41752049 32.71349469 -29.36185423 28.69171316 -29.30664062 24.66992188 C-29.19912254 16.78001164 -29.09766352 8.89003834 -29 1 C-19.31337984 -0.04518445 -9.72654773 -0.10371911 0 0 Z " fill="#000000" transform="translate(467,151)"/>
  <path d="M0 0 C0 8.58 0 17.16 0 26 C-2.64 26.4125 -5.28 26.825 -8 27.25 C-15.67860375 28.56145907 -22.33054238 29.85616839 -27.875 35.8125 C-32.81541529 43.22312293 -32.33444246 50.94336471 -32.4140625 59.58984375 C-32.43342865 60.88950577 -32.4527948 62.18916779 -32.4727478 63.5282135 C-32.52381345 66.96234179 -32.5635748 70.39650901 -32.60089111 73.83081055 C-32.64109231 77.34368277 -32.69200715 80.85639911 -32.7421875 84.36914062 C-32.83964567 91.24603275 -32.91936646 98.12280778 -33 105 C-42.57 105 -52.14 105 -62 105 C-62 71.01 -62 37.02 -62 2 C-52.43 2 -42.86 2 -33 2 C-32.505 8.93 -32.505 8.93 -32 16 C-30.4840625 14.1746875 -30.4840625 14.1746875 -28.9375 12.3125 C-20.79943492 3.04232506 -12.39651759 0 0 0 Z " fill="#000000" transform="translate(553,149)"/>
</svg>
