<?xml version="1.0" encoding="UTF-8"?>
<svg xmlns="http://www.w3.org/2000/svg" width="173" height="49" fill="none" viewBox="0 0 173 49">
  <path fill="#fff" d="M60.941 0h9.627c4.89 0 7.51 2.12 7.51 6.02 0 2.59-1.559 4.116-3.021 4.743 2.117.78 3.676 2.652 3.676 5.332 0 3.962-2.806 6.298-7.6 6.298H60.945V0h-.005Zm9.097 8.983c2.026 0 3.145-.809 3.145-2.37 0-1.56-1.123-2.34-3.145-2.34h-4.111v4.71h4.11Zm-4.111 9.107h4.737c1.993 0 3.083-1.029 3.083-2.527 0-1.498-1.09-2.527-3.083-2.527h-4.737v5.054Zm25.516-7.36a7.363 7.363 0 0 0-1.462-.125c-2.151 0-3.863 1.34-3.863 3.714v8.078h-4.985V5.958h4.985v2.154c.746-1.312 2.338-2.245 4.236-2.245.468 0 .779.034 1.09.062v4.805-.005Zm1.057 3.43c0-4.866 3.49-8.547 8.226-8.547 4.986 0 7.696 3.68 7.696 8.328v1.31H97.299c.344 2.245 1.683 3.523 3.58 3.523 1.559 0 2.773-.746 3.241-2.182l4.173 1.34c-1.214 3.149-4.206 4.805-7.476 4.805-4.952 0-8.317-3.46-8.317-8.576Zm4.952-1.966h6.042c-.029-1.465-.999-2.714-2.835-2.714-1.524 0-2.71.905-3.207 2.714Zm12.182 5.612c0-3.397 2.868-4.77 6.324-5.269l3.675-.622v-.282c0-1.216-.654-1.996-2.275-1.996-1.434 0-2.179.622-2.49 1.967l-4.766-.718c.717-2.9 3.303-5.269 7.476-5.269s6.945 1.967 6.945 5.8v6.332c0 .842.311 1.091 1.277.967v3.68c-2.868.47-4.799-.062-5.641-1.464-1.09 1.124-2.71 1.775-4.861 1.775-3.303 0-5.669-1.995-5.669-4.896l.005-.005Zm9.999-2.68-2.868.532c-1.309.22-2.275.655-2.275 1.809 0 1.029.779 1.589 1.965 1.589 1.649 0 3.178-.871 3.178-2.556v-1.373Zm8.761-5.053h-2.089V5.958h2.089V1.406h4.923v4.552h3.207v4.115h-3.207v6.643c0 1.373.717 1.622 1.965 1.622.592 0 .874-.033 1.434-.095v4.087c-.87.124-1.807.22-2.993.22-3.551 0-5.325-1.187-5.325-4.556v-7.92h-.004ZM139.074 0h4.986v7.61c.903-1.063 2.428-1.996 4.517-1.996 3.365 0 5.483 2.34 5.483 5.925v10.854h-4.986v-9.419c0-1.65-.684-2.871-2.304-2.871-1.372 0-2.71.966-2.71 2.9v9.39h-4.986V0Zm17.074 14.16c0-4.866 3.49-8.547 8.227-8.547 4.985 0 7.696 3.68 7.696 8.328v1.31h-11.123c.344 2.245 1.682 3.523 3.58 3.523 1.558 0 2.772-.746 3.241-2.182l4.173 1.34c-1.215 3.149-4.207 4.805-7.476 4.805-4.952 0-8.318-3.46-8.318-8.576Zm4.953-1.966h6.041c-.033-1.465-.994-2.714-2.834-2.714-1.525 0-2.71.905-3.207 2.714Zm-90.656 31.38c2.303 0 3.957-1.465 4.483-3.838l4.89 1.622c-1.372 4.087-4.55 6.739-9.345 6.739-6.137 0-10.559-4.772-10.559-11.539 0-6.767 4.422-11.538 10.56-11.538 4.798 0 7.972 2.65 9.344 6.738l-4.89 1.622c-.53-2.369-2.18-3.838-4.483-3.838-3.117 0-5.325 2.747-5.325 7.016s2.213 7.016 5.325 7.016ZM81.629 25.36h5.076v4.273H81.63V25.36Zm5.014 22.392h-4.985V31.318h4.985v16.434Zm3.833-12.319h-2.09v-4.116h2.09v-4.551h4.923v4.55h3.207v4.117H95.4v6.642c0 1.374.717 1.623 1.965 1.623.592 0 .874-.034 1.434-.096v4.087c-.87.124-1.807.22-2.993.22-3.551 0-5.325-1.187-5.325-4.556v-7.92h-.004Zm10.657-10.073h5.076v4.273h-5.076V25.36Zm5.014 22.392h-4.986V31.318h4.986v16.434Zm2.123-8.232c0-4.867 3.489-8.547 8.226-8.547 4.986 0 7.696 3.68 7.696 8.327v1.311h-11.123c.344 2.245 1.682 3.523 3.58 3.523 1.558 0 2.772-.747 3.241-2.183l4.173 1.34c-1.214 3.15-4.207 4.805-7.476 4.805-4.952 0-8.317-3.46-8.317-8.576Zm4.952-1.967h6.042c-.034-1.464-.999-2.713-2.835-2.713-1.525 0-2.71.904-3.207 2.713Zm14.172 4.432c1.338 1.464 3.456 2.34 5.234 2.34 1.31 0 2.399-.436 2.399-1.311 0-1.092-1.089-1.216-3.704-1.685-2.71-.531-5.607-1.249-5.607-4.805 0-3.336 2.959-5.551 7.007-5.551 2.959 0 5.579 1.124 6.946 2.617l-2.491 3.212c-1.247-1.312-2.868-2.03-4.483-2.03-1.214 0-1.994.47-1.994 1.216 0 .905.966 1.03 2.959 1.402 2.959.594 6.262 1.312 6.262 5.02 0 3.71-3.303 5.677-7.476 5.677-2.868 0-6.104-.967-7.634-2.748l2.586-3.369-.004.015ZM38.444.423c-5.765 0-10.459 4.556-10.459 10.16v.804h5.64v-.804c0-2.489 2.161-4.508 4.814-4.508s4.814 2.024 4.814 4.508-2.056 4.403-4.618 4.498v.01H12.766v5.647h25.683c5.764 0 10.454-4.556 10.454-10.16S44.213.418 38.449.418l-.005.005ZM14.851 30.112h25.163c3.45 0 6.257 2.852 6.257 6.356 0 3.503-2.806 6.355-6.257 6.355-3.452 0-6.258-2.852-6.258-6.355v-2.652h-5.64v2.651c0 6.62 5.34 12.003 11.898 12.003S51.91 43.086 51.91 36.468c0-6.62-5.34-12.003-11.897-12.003H0v5.647h14.851Z"></path>
</svg>
