<?xml version="1.0" encoding="UTF-8"?>
<svg version="1.1" xmlns="http://www.w3.org/2000/svg" width="617" height="373">
<path d="M0 0 C1.66847291 1.41115972 3.31299166 2.85094389 4.9375 4.3125 C5.41574219 4.74159668 5.89398438 5.17069336 6.38671875 5.61279297 C14.47677914 12.97755553 20.49139611 20.8463854 25.9375 30.3125 C26.42863281 31.14136719 26.91976562 31.97023437 27.42578125 32.82421875 C38.03082625 52.16283023 40.86591713 79.19343054 35.25 100.375 C34.53718298 102.70603672 33.77074706 105.02174912 32.9375 107.3125 C32.55207031 108.37984375 32.16664063 109.4471875 31.76953125 110.546875 C21.46769196 136.81823214 2.45836872 155.00226214 -23.0625 166.3125 C-45.70293558 175.47133969 -71.88671312 174.89584057 -94.5 165.9375 C-103.8295542 161.71085114 -112.22980808 156.93282743 -120.0625 150.3125 C-120.87589844 149.64476562 -121.68929687 148.97703125 -122.52734375 148.2890625 C-140.46490073 132.97718797 -152.02655255 109.82350963 -154.0625 86.3125 C-155.89459524 59.06578829 -148.24854772 34.00453147 -130.53125 13.0390625 C-97.36954577 -23.5857311 -39.90979237 -30.72926505 0 0 Z M-66.0625 18.3125 C-68.10764034 19.30434542 -68.10764034 19.30434542 -70.203125 20.890625 C-71.01990723 21.46973633 -71.83668945 22.04884766 -72.67822266 22.64550781 C-73.54753418 23.27811523 -74.4168457 23.91072266 -75.3125 24.5625 C-76.20114746 25.19768555 -77.08979492 25.83287109 -78.00537109 26.48730469 C-80.69928258 28.41794931 -83.38194386 30.36336847 -86.0625 32.3125 C-87.5911316 33.41668638 -89.11977639 34.52085449 -90.6484375 35.625 C-98.66546934 40.50399656 -98.66546934 40.50399656 -103.58203125 47.625 C-102.9280865 51.00781194 -101.43091241 52.04900468 -98.69287109 54.00415039 C-98.05172363 54.43590576 -97.41057617 54.86766113 -96.75 55.3125 C-96.09080566 55.77454834 -95.43161133 56.23659668 -94.75244141 56.71264648 C-93.31120987 57.71837037 -91.86429431 58.71598469 -90.41259766 59.70654297 C-87.93219148 61.40154732 -85.47144221 63.12279573 -83.01171875 64.84765625 C-81.32121101 66.02472899 -79.62981779 67.20053112 -77.9375 68.375 C-77.13272217 68.93509766 -76.32794434 69.49519531 -75.4987793 70.07226562 C-71.79922796 72.60536194 -68.36982774 74.91997035 -64.0625 76.3125 C-63.4025 75.6525 -62.7425 74.9925 -62.0625 74.3125 C-61.98864479 72.32063549 -61.98864479 72.32063549 -63.0625 70.3125 C-65.37363299 68.37727921 -65.37363299 68.37727921 -68.3125 66.625 C-69.385 65.93792969 -70.4575 65.25085938 -71.5625 64.54296875 C-72.13097656 64.18251465 -72.69945313 63.82206055 -73.28515625 63.45068359 C-76.33109649 61.50011033 -79.32485533 59.47585002 -82.3125 57.4375 C-82.88516602 57.05634033 -83.45783203 56.67518066 -84.04785156 56.2824707 C-85.42271929 55.34404551 -86.7483137 54.33417387 -88.0625 53.3125 C-88.0625 52.6525 -88.0625 51.9925 -88.0625 51.3125 C-86.71612961 51.2970388 -86.71612961 51.2970388 -85.34255981 51.28126526 C-76.89604966 51.18340898 -68.44961147 51.08091162 -60.00322151 50.97316074 C-55.66053965 50.91792582 -51.31785105 50.86450491 -46.97509766 50.81518555 C-42.78645735 50.76755039 -38.59790022 50.71520789 -34.40935898 50.65955925 C-32.80894916 50.63913185 -31.20851653 50.6204194 -29.60806656 50.60342598 C-27.37160216 50.57939045 -25.13529553 50.54933488 -22.89892578 50.51782227 C-21.62429474 50.50227798 -20.3496637 50.4867337 -19.03640747 50.47071838 C-16.13429923 50.51467617 -16.13429923 50.51467617 -14.0625 49.3125 C-14.3925 47.6625 -14.7225 46.0125 -15.0625 44.3125 C-39.4825 44.3125 -63.9025 44.3125 -89.0625 44.3125 C-89.0625 43.3225 -89.0625 42.3325 -89.0625 41.3125 C-88.49337891 41.04228027 -87.92425781 40.77206055 -87.33789062 40.49365234 C-83.18684704 38.33885096 -79.41671026 35.57673297 -75.5625 32.9375 C-74.70785156 32.36 -73.85320312 31.7825 -72.97265625 31.1875 C-72.14636719 30.62289062 -71.32007812 30.05828125 -70.46875 29.4765625 C-69.34436523 28.71013428 -69.34436523 28.71013428 -68.19726562 27.92822266 C-65.94214226 26.22140582 -64.01584325 24.35377688 -62.0625 22.3125 C-62.5575 20.8275 -62.5575 20.8275 -63.0625 19.3125 C-64.0525 18.9825 -65.0425 18.6525 -66.0625 18.3125 Z M-53.0625 77.3125 C-53.3925 78.9625 -53.7225 80.6125 -54.0625 82.3125 C-50.82474191 84.57452142 -47.5857847 86.83481371 -44.34570312 89.09350586 C-42.70118311 90.24045688 -41.0576186 91.38877752 -39.4140625 92.53710938 C-38.3828125 93.25576172 -37.3515625 93.97441406 -36.2890625 94.71484375 C-35.33596191 95.37991943 -34.38286133 96.04499512 -33.40087891 96.73022461 C-31.17473164 98.31090986 -31.17473164 98.31090986 -29.0625 99.3125 C-28.5675 100.7975 -28.5675 100.7975 -28.0625 102.3125 C-52.1525 102.6425 -76.2425 102.9725 -101.0625 103.3125 C-101.7225 104.6325 -102.3825 105.9525 -103.0625 107.3125 C-101.22287753 109.5769635 -101.22287753 109.5769635 -98.4528656 109.55973816 C-97.34749954 109.55831314 -96.24213348 109.55688812 -95.10327148 109.55541992 C-93.85114365 109.55849655 -92.59901581 109.56157318 -91.3089447 109.56474304 C-89.93382589 109.55783983 -88.55870887 109.55057245 -87.18359375 109.54296875 C-85.77311749 109.54177609 -84.36264043 109.54132397 -82.9521637 109.5415802 C-79.9888108 109.54001373 -77.02557841 109.53171825 -74.06225586 109.51831055 C-70.28538691 109.50142922 -66.50865178 109.49749315 -62.73174953 109.49825573 C-59.81387582 109.49798195 -56.8960307 109.49246581 -53.97816658 109.48525429 C-52.58727294 109.48209532 -51.19637608 109.48010677 -49.80547905 109.47936058 C-42.47808728 109.47113498 -35.32638243 109.30724655 -28.0625 108.3125 C-28.79661231 111.74186335 -29.36806141 112.92774256 -32.34375 114.86328125 C-33.01728516 115.31147217 -33.69082031 115.75966309 -34.38476562 116.22143555 C-35.10341797 116.68461182 -35.82207031 117.14778809 -36.5625 117.625 C-38.02225507 118.59421627 -39.48059639 119.56556525 -40.9375 120.5390625 C-41.64519531 121.00989258 -42.35289063 121.48072266 -43.08203125 121.96582031 C-46.89062782 124.55559086 -50.49219417 127.40666775 -54.0625 130.3125 C-53.5675 132.2925 -53.5675 132.2925 -53.0625 134.3125 C-47.80015237 133.87397103 -44.42468245 131.02891125 -40.3125 128 C-38.8078568 126.908075 -37.30263021 125.81695353 -35.796875 124.7265625 C-34.63575195 123.88206543 -34.63575195 123.88206543 -33.45117188 123.02050781 C-31.0617941 121.31199525 -28.64148501 119.66112732 -26.203125 118.0234375 C-25.42549805 117.49532471 -24.64787109 116.96721191 -23.84667969 116.4230957 C-22.34934758 115.40828351 -20.84495867 114.40378938 -19.33300781 113.41088867 C-16.37628531 111.38333134 -14.41612315 110.01219947 -12.78125 106.77734375 C-13.11361419 103.86454088 -14.03834864 102.665951 -16.21289062 100.74560547 C-20.46209594 97.45325658 -24.8773947 94.40969403 -29.3125 91.375 C-30.81103516 90.33956055 -30.81103516 90.33956055 -32.33984375 89.28320312 C-34.30824313 87.92590812 -36.28017464 86.57371915 -38.25585938 85.22705078 C-40.07636433 83.98519275 -41.89060637 82.73408397 -43.69726562 81.47216797 C-44.89125977 80.64869873 -44.89125977 80.64869873 -46.109375 79.80859375 C-46.80385742 79.32447021 -47.49833984 78.84034668 -48.21386719 78.34155273 C-50.14674958 77.06931122 -50.14674958 77.06931122 -53.0625 77.3125 Z " fill="#FFFFFF" transform="translate(154.0625,109.6875)"/>
<path d="M0 0 C10.00286529 8.34690996 12.78302094 18.49119132 15 31 C4.312837 31.79585256 -6.28399677 32.12825004 -17 32 C-17.21914063 31.26394531 -17.43828125 30.52789062 -17.6640625 29.76953125 C-19.73291041 23.40319846 -21.20489299 19.52251603 -27 16 C-34.06007574 13.09290999 -42.31691915 12.73888399 -49.5 15.4375 C-51.2325 16.2109375 -51.2325 16.2109375 -53 17 C-53.99 17.33 -54.98 17.66 -56 18 C-58.71426068 23.12693684 -59.68732814 28.58392605 -58.0625 34.1875 C-56.36947222 38.06797961 -54.38959926 39.61019238 -50.51953125 41.20703125 C-43.38348571 43.45294946 -36.02392 44.66702147 -28.66015625 45.8984375 C-1.26949595 50.52950373 -1.26949595 50.52950373 9 60 C9.55300781 60.48855469 10.10601562 60.97710937 10.67578125 61.48046875 C17.64742291 68.48670912 19.37241444 78.50383511 19.5 88.0625 C19.33442487 100.45550247 15.22830937 109.5199312 6.77734375 118.3125 C1.06775907 123.81396986 -4.51554935 127.39981619 -12 130 C-12.90492188 130.31839844 -13.80984375 130.63679687 -14.7421875 130.96484375 C-33.87506528 136.47125552 -56.43773091 134.2955975 -73.8671875 124.9375 C-84.75402549 118.20449296 -89.94053746 108.19399933 -92.875 95.9375 C-93.52806062 92.84109187 -94 90.16444871 -94 87 C-83.77 87 -73.54 87 -63 87 C-61.515 91.455 -61.515 91.455 -60 96 C-57.0605669 101.19299847 -53.92774012 104.81780756 -48.3203125 107.08203125 C-40.38789985 109.27511004 -30.82726095 109.36530853 -23.25 105.9375 C-19.03052072 103.39444683 -16.31998617 100.81516081 -15 96 C-14.26980329 91.10612842 -14.51454641 87.24830924 -16.3125 82.625 C-23.18201195 75.91524414 -34.20282684 75.0465481 -43.3125 73.5625 C-58.18169237 70.95643435 -70.79136623 68.20863377 -81.75 57.25 C-88.48995153 47.51451446 -89.916502 36.61763095 -89 25 C-86.5794112 12.7725686 -80.99010008 4.33563902 -71 -3 C-51.21003229 -15.92477537 -18.81545582 -14.31610769 0 0 Z " fill="#FFFFFF" transform="translate(335,124)"/>
<path d="M0 0 C0.13271809 9.29517371 0.26322078 18.59037546 0.39115143 27.8856163 C0.45066575 32.20517209 0.51084877 36.52471605 0.57275391 40.84423828 C0.86918901 61.56555374 1.05608645 82.27605766 1 103 C-8.57 103 -18.14 103 -28 103 C-29.14814997 100.70370006 -29.30769809 98.92301914 -29.5625 96.375 C-29.68818359 95.14910156 -29.68818359 95.14910156 -29.81640625 93.8984375 C-29.87699219 93.27195312 -29.93757813 92.64546875 -30 92 C-30.45375 92.70125 -30.9075 93.4025 -31.375 94.125 C-37.35746957 100.67722858 -45.72782845 104.9050293 -54.609375 105.3359375 C-67.19241343 105.55880781 -76.714569 104.9334984 -86.24609375 95.921875 C-97.02027816 84.11586446 -96.15177824 69.06017744 -96.09765625 54.02734375 C-96.09578782 52.49321031 -96.09436593 50.95907627 -96.09336853 49.42494202 C-96.08957676 45.41535757 -96.07977555 41.40581018 -96.06866455 37.39624023 C-96.05837807 33.29346213 -96.0538555 29.19067795 -96.04882812 25.08789062 C-96.03814982 17.05857497 -96.02058063 9.02929638 -96 1 C-86.43 1 -76.86 1 -67 1 C-66.93941406 4.20976562 -66.87882812 7.41953125 -66.81640625 10.7265625 C-66.75418132 13.91749438 -66.69097673 17.10840551 -66.62768555 20.29931641 C-66.58500093 22.47703107 -66.54329674 24.65476522 -66.50268555 26.83251953 C-66.36444233 34.22255816 -66.19365591 41.61121594 -66 49 C-65.96311066 50.56663391 -65.96311066 50.56663391 -65.92547607 52.16491699 C-65.84975956 55.18094813 -65.75409143 58.19568502 -65.65234375 61.2109375 C-65.63200577 62.11188141 -65.61166779 63.01282532 -65.5907135 63.94107056 C-65.35009048 70.1596497 -64.17516124 74.48496982 -60 79.3125 C-54.69161452 82.29846683 -49.16873067 82.68125468 -43.23828125 81.40625 C-37.07272575 79.26812014 -34.18699528 76.65434647 -31 71 C-29.88121573 67.64364718 -29.84114412 65.04711646 -29.79467773 61.5090332 C-29.78477814 60.8551059 -29.77487854 60.20117859 -29.76467896 59.5274353 C-29.73312217 57.3685873 -29.70832968 55.20971729 -29.68359375 53.05078125 C-29.66301919 51.55290662 -29.64202258 50.05503772 -29.62062073 48.55717468 C-29.56545191 44.6166143 -29.51601979 40.67600197 -29.46777344 36.73535156 C-29.41752049 32.71349469 -29.36185423 28.69171316 -29.30664062 24.66992188 C-29.19912254 16.78001164 -29.09766352 8.89003834 -29 1 C-19.31337984 -0.04518445 -9.72654773 -0.10371911 0 0 Z " fill="#FFFFFF" transform="translate(467,151)"/>
<path d="M0 0 C0 8.58 0 17.16 0 26 C-2.64 26.4125 -5.28 26.825 -8 27.25 C-15.67860375 28.56145907 -22.33054238 29.85616839 -27.875 35.8125 C-32.81541529 43.22312293 -32.33444246 50.94336471 -32.4140625 59.58984375 C-32.43342865 60.88950577 -32.4527948 62.18916779 -32.4727478 63.5282135 C-32.52381345 66.96234179 -32.5635748 70.39650901 -32.60089111 73.83081055 C-32.64109231 77.34368277 -32.69200715 80.85639911 -32.7421875 84.36914062 C-32.83964567 91.24603275 -32.91936646 98.12280778 -33 105 C-42.57 105 -52.14 105 -62 105 C-62 71.01 -62 37.02 -62 2 C-52.43 2 -42.86 2 -33 2 C-32.505 8.93 -32.505 8.93 -32 16 C-30.4840625 14.1746875 -30.4840625 14.1746875 -28.9375 12.3125 C-20.79943492 3.04232506 -12.39651759 0 0 0 Z " fill="#FFFFFF" transform="translate(553,149)"/>
</svg>
